<svg xmlns="http://www.w3.org/2000/svg" width="64" height="64" viewBox="0 0 64 64" role="img" aria-label="Vizancia">
  <defs>
    <linearGradient id="bg" x1="8" y1="6" x2="56" y2="60" gradientUnits="userSpaceOnUse">
      <stop stop-color="#183B73"/>
      <stop offset="1" stop-color="#10213F"/>
    </linearGradient>
    <linearGradient id="brain" x1="11" y1="14" x2="51" y2="50" gradientUnits="userSpaceOnUse">
      <stop stop-color="#67E8F9"/>
      <stop offset=".53" stop-color="#60A5FA"/>
      <stop offset="1" stop-color="#2DD4BF"/>
    </linearGradient>
  </defs>
  <rect width="64" height="64" rx="15" fill="url(#bg)"/>
  <rect x="1" y="1" width="62" height="62" rx="14" fill="none" stroke="#67E8F9" stroke-opacity=".22" stroke-width="2"/>
  <g fill="none" stroke="url(#brain)" stroke-linecap="round" stroke-linejoin="round">
    <path d="M29.8 43.2c-3.1 2.1-8.7.1-9.8-4-4.8.2-8.4-3.5-7.7-7.9-3.3-3.4-1.9-9 2.2-11.1-.2-4.7 4.3-8.3 8.8-7.1 2.8-4.3 9.5-4.7 13-.7 4.8-1.8 10.4 1.3 11.4 6.3 4.4 2.1 5.3 8 1.7 11.3 1.4 4.5-2.3 9-6.9 8.9-3.4 3.8-9 5.1-12.7 4.3Z" stroke-width="1.8" stroke-opacity=".56"/>
    <path d="M42.5 34.6c4.3-1.4 8.5 1.3 8.6 5.6.1 4.9-4.8 7.9-9.2 5.7-3.8-1.9-3.6-7.5.6-11.3Z" stroke-width="1.5" stroke-opacity=".48"/>
    <path d="M39 38.8c-.5 3.4 1.9 5.7 1.1 9.3-.4 2-1.5 3.8-3.1 5l-2.3-1.8c1.2-1.3 1.9-2.7 2-4.3.3-2.8-1.4-4.9-1.1-7.3Z" fill="#60A5FA" fill-opacity=".1" stroke-width="1.5" stroke-opacity=".56"/>
    <path d="M25 13.2c-2.8 4.3-2.7 9.5.3 13.5m11.4-14.2c-1.8 4.8-.5 9.1 3.6 12.2M15 31.8c4.2-3.7 10.7-4.1 15-.9 2.8 2.1 6 2.7 9.1 1.4m8.4-12.9c-4 2.3-5.8 6-4.7 10.2" stroke-width="1.15" stroke-opacity=".38"/>
  </g>
  <path d="M15.5 16.5 32 48l16.5-31.5" fill="none" stroke="#FFFFFF" stroke-width="7.4" stroke-linecap="round" stroke-linejoin="round"/>
  <circle cx="15.5" cy="16.5" r="4.3" fill="#67E8F9"/>
  <circle cx="48.5" cy="16.5" r="4.3" fill="#2DD4BF"/>
  <circle cx="32" cy="48" r="4.3" fill="#60A5FA"/>
</svg>
