<svg xmlns="http://www.w3.org/2000/svg" width="1200" height="630" viewBox="0 0 1200 630"><defs><linearGradient id="g" x1="0" y1="0" x2="1" y2="1"><stop stop-color="#10213f"/><stop offset="1" stop-color="#243b68"/></linearGradient></defs><rect width="1200" height="630" rx="32" fill="url(#g)"/><circle cx="1070" cy="40" r="250" fill="#2563eb" opacity=".2"/><circle cx="1060" cy="540" r="180" fill="#0f9f86" opacity=".17"/><text x="80" y="100" fill="#67e8f9" font-family="Arial,sans-serif" font-size="28" font-weight="700" letter-spacing="3">VIZANCIA · HOMESCHOOL</text><text x="80" y="245" fill="#fff" font-family="Arial,sans-serif" font-size="65" font-weight="700">Teach learners to question AI,</text><text x="80" y="325" fill="#fff" font-family="Arial,sans-serif" font-size="65" font-weight="700">not depend on it.</text><text x="80" y="420" fill="#c9d5e7" font-family="Arial,sans-serif" font-size="29">Short lessons · Flexible plans · Offline activities</text><g transform="translate(890 180)"><rect width="210" height="270" rx="28" fill="#fff"/><circle cx="55" cy="62" r="24" fill="#dbeafe"/><rect x="91" y="49" width="84" height="12" rx="6" fill="#172033"/><rect x="91" y="72" width="65" height="9" rx="4" fill="#94a3b8"/><rect x="30" y="116" width="150" height="14" rx="7" fill="#cbd5e1"/><rect x="30" y="149" width="150" height="14" rx="7" fill="#cbd5e1"/><rect x="30" y="182" width="150" height="14" rx="7" fill="#cbd5e1"/><rect x="30" y="219" width="105" height="26" rx="10" fill="#0f9f86"/></g></svg>
