<svg xmlns="http://www.w3.org/2000/svg" width="1200" height="630" viewBox="0 0 1200 630">
  <defs><linearGradient id="g" x1="0" y1="0" x2="1" y2="1"><stop stop-color="#10213f"/><stop offset="1" stop-color="#173d73"/></linearGradient><linearGradient id="a" x1="0" y1="0" x2="1" y2="0"><stop stop-color="#2563eb"/><stop offset="1" stop-color="#0891b2"/></linearGradient></defs>
  <rect width="1200" height="630" rx="32" fill="url(#g)"/><circle cx="1080" cy="70" r="260" fill="#2563eb" opacity=".18"/><circle cx="100" cy="600" r="220" fill="#0891b2" opacity=".13"/>
  <text x="80" y="100" fill="#67e8f9" font-family="Arial, sans-serif" font-size="28" font-weight="700" letter-spacing="3">VIZANCIA</text>
  <text x="80" y="245" fill="#fff" font-family="Arial, sans-serif" font-size="64" font-weight="700">Learn how AI works.</text><text x="80" y="325" fill="#fff" font-family="Arial, sans-serif" font-size="64" font-weight="700">Know when to question it.</text>
  <rect x="80" y="390" width="700" height="5" rx="3" fill="url(#a)"/><text x="80" y="460" fill="#c9d5e7" font-family="Arial, sans-serif" font-size="30">Short lessons · Active games · Human judgment</text>
  <g transform="translate(875 210)"><rect width="230" height="275" rx="28" fill="#fff" opacity=".98"/><rect x="24" y="28" width="92" height="18" rx="9" fill="#dbeafe"/><rect x="24" y="70" width="178" height="18" rx="8" fill="#172033"/><rect x="24" y="101" width="152" height="12" rx="6" fill="#94a3b8"/><rect x="24" y="126" width="170" height="12" rx="6" fill="#cbd5e1"/><rect x="24" y="168" width="182" height="64" rx="14" fill="#eef2ff"/><circle cx="50" cy="200" r="12" fill="#2563eb"/><rect x="72" y="190" width="110" height="10" rx="5" fill="#536079"/><rect x="72" y="208" width="88" height="8" rx="4" fill="#94a3b8"/></g>
</svg>
