<svg xmlns="http://www.w3.org/2000/svg" width="1200" height="630" viewBox="0 0 1200 630"><defs><linearGradient id="g" x1="0" y1="0" x2="1" y2="1"><stop stop-color="#10213f"/><stop offset="1" stop-color="#144f5d"/></linearGradient></defs><rect width="1200" height="630" rx="32" fill="url(#g)"/><circle cx="1090" cy="55" r="270" fill="#0891b2" opacity=".22"/><text x="80" y="100" fill="#67e8f9" font-family="Arial,sans-serif" font-size="28" font-weight="700" letter-spacing="3">VIZANCIA · AI SANDBOX</text><text x="80" y="245" fill="#fff" font-family="Arial,sans-serif" font-size="68" font-weight="700">Prompt. Examine.</text><text x="80" y="330" fill="#fff" font-family="Arial,sans-serif" font-size="68" font-weight="700">Verify. Reflect.</text><text x="80" y="425" fill="#c9d5e7" font-family="Arial,sans-serif" font-size="29">Adult-managed limited beta · Guided AI practice</text><g transform="translate(850 175)"><rect width="270" height="290" rx="28" fill="#fff"/><rect x="28" y="30" width="92" height="14" rx="7" fill="#dbeafe"/><rect x="28" y="75" width="214" height="56" rx="14" fill="#eef2ff"/><rect x="47" y="94" width="170" height="9" rx="4" fill="#64748b"/><rect x="47" y="111" width="128" height="7" rx="3" fill="#94a3b8"/><rect x="28" y="153" width="214" height="76" rx="14" fill="#f1f5f9"/><rect x="47" y="174" width="165" height="9" rx="4" fill="#536079"/><rect x="47" y="192" width="145" height="7" rx="3" fill="#94a3b8"/><rect x="28" y="249" width="142" height="22" rx="10" fill="#0f9f86"/></g></svg>
