<svg xmlns="http://www.w3.org/2000/svg" width="720" height="720" viewBox="0 0 64 64" role="img" aria-label="Vizancia connected learning and human judgment mark">
  <defs>
    <linearGradient id="bg" x1="8" y1="6" x2="56" y2="60" gradientUnits="userSpaceOnUse">
      <stop stop-color="#183B73"/>
      <stop offset="1" stop-color="#10213F"/>
    </linearGradient>
    <linearGradient id="brain" x1="10" y1="18" x2="54" y2="47" gradientUnits="userSpaceOnUse">
      <stop stop-color="#67E8F9"/>
      <stop offset="1" stop-color="#2DD4BF"/>
    </linearGradient>
  </defs>
  <rect width="64" height="64" rx="15" fill="url(#bg)"/>
  <rect x="1" y="1" width="62" height="62" rx="14" fill="none" stroke="#67E8F9" stroke-opacity=".22" stroke-width="2"/>
  <g fill="none" stroke="url(#brain)" stroke-linecap="round" stroke-linejoin="round">
    <path d="M31.7 16.7c-2.4-4.2-9.5-3.9-11.4.7-5.1-.6-8.4 4.8-5.7 9.1-5.1 2.6-3.8 10.1 1.2 11.2-1.2 5.2 3.9 9.5 8.7 7.6 1.5 3.8 5.4 4.6 7.2 2.4M32.3 16.7c2.4-4.2 9.5-3.9 11.4.7 5.1-.6 8.4 4.8 5.7 9.1 5.1 2.6 3.8 10.1-1.2 11.2 1.2 5.2-3.9 9.5-8.7 7.6-1.5 3.8-5.4 4.6-7.2 2.4M32 16.7v31" stroke-width="1.7" stroke-opacity=".3"/>
    <path d="M20.3 17.4c4.4.7 6.6 4 5.6 7.4m-11.3 1.7c4.5-1.3 8.2.8 8.8 4.2m-7.6 7c3.5-1.5 7.4.1 8.9 3.5m19-23.8c-4.4.7-6.6 4-5.6 7.4m11.3 1.7c-4.5-1.3-8.2.8-8.8 4.2m7.6 7c-3.5-1.5-7.4.1-8.9 3.5M26 24.8c2.7.2 4.7 1.8 6 4.4m6-4.4c-2.7.2-4.7 1.8-6 4.4m-7.3 12c2.4-.6 5.6.6 7.3 2.9m7.3-2.9c-2.4-.6-5.6.6-7.3 2.9" stroke-width="1.25" stroke-opacity=".2"/>
  </g>
  <path d="M15.5 16.5 32 48l16.5-31.5" fill="none" stroke="#FFFFFF" stroke-width="8" stroke-linecap="round" stroke-linejoin="round"/>
  <circle cx="15.5" cy="16.5" r="4.5" fill="#67E8F9"/>
  <circle cx="48.5" cy="16.5" r="4.5" fill="#2DD4BF"/>
  <circle cx="32" cy="48" r="4.5" fill="#60A5FA"/>
</svg>
