<svg xmlns="http://www.w3.org/2000/svg" width="720" height="720" viewBox="0 0 64 64" role="img" aria-label="Vizancia V with a side-profile brain">
  <defs>
    <linearGradient id="bg" x1="8" y1="6" x2="56" y2="60" gradientUnits="userSpaceOnUse">
      <stop stop-color="#183B73"/>
      <stop offset="1" stop-color="#10213F"/>
    </linearGradient>
    <linearGradient id="brain" x1="10" y1="14" x2="52" y2="49" gradientUnits="userSpaceOnUse">
      <stop stop-color="#67E8F9"/>
      <stop offset=".53" stop-color="#60A5FA"/>
      <stop offset="1" stop-color="#2DD4BF"/>
    </linearGradient>
    <linearGradient id="brain-fill" x1="11" y1="13" x2="51" y2="46" gradientUnits="userSpaceOnUse">
      <stop stop-color="#67E8F9" stop-opacity=".13"/>
      <stop offset=".58" stop-color="#60A5FA" stop-opacity=".1"/>
      <stop offset="1" stop-color="#2DD4BF" stop-opacity=".16"/>
    </linearGradient>
  </defs>
  <rect width="64" height="64" rx="15" fill="url(#bg)"/>
  <rect x="1" y="1" width="62" height="62" rx="14" fill="none" stroke="#67E8F9" stroke-opacity=".22" stroke-width="2"/>
  <g stroke="url(#brain)" stroke-linecap="round" stroke-linejoin="round">
    <path d="M29.8 43.2c-3.1 2.1-8.7.1-9.8-4-4.8.2-8.4-3.5-7.7-7.9-3.3-3.4-1.9-9 2.2-11.1-.2-4.7 4.3-8.3 8.8-7.1 2.8-4.3 9.5-4.7 13-.7 4.8-1.8 10.4 1.3 11.4 6.3 4.4 2.1 5.3 8 1.7 11.3 1.4 4.5-2.3 9-6.9 8.9-3.4 3.8-9 5.1-12.7 4.3Z" fill="url(#brain-fill)" stroke-width="1.75" stroke-opacity=".62"/>
    <path d="M42.5 34.6c4.3-1.4 8.5 1.3 8.6 5.6.1 4.9-4.8 7.9-9.2 5.7-3.8-1.9-3.6-7.5.6-11.3Z" fill="#2DD4BF" fill-opacity=".1" stroke-width="1.5" stroke-opacity=".52"/>
    <path d="M39 38.8c-.5 3.4 1.9 5.7 1.1 9.3-.4 2-1.5 3.8-3.1 5l-2.3-1.8c1.2-1.3 1.9-2.7 2-4.3.3-2.8-1.4-4.9-1.1-7.3Z" fill="url(#brain-fill)" stroke-width="1.5" stroke-opacity=".58"/>
    <g fill="none" stroke-width="1.2" stroke-opacity=".43">
      <path d="M25 13.2c-2.8 4.3-2.7 9.5.3 13.5"/>
      <path d="M36.7 12.5c-1.8 4.8-.5 9.1 3.6 12.2"/>
      <path d="M15 31.8c4.2-3.7 10.7-4.1 15-.9 2.8 2.1 6 2.7 9.1 1.4"/>
      <path d="M47.5 19.4c-4 2.3-5.8 6-4.7 10.2"/>
      <path d="M20.3 20.1c3.1.4 5.7 2.4 6.8 5.2"/>
      <path d="M30.2 15.1c2.9 2.2 3.1 6.1.6 8.8-2.1 2.3-1.5 5.2.7 7.1"/>
      <path d="M42 38.1c2.2 1.9 4.5 2.4 6.8 1.3M41.5 41.5c2.3 1.3 4.7 1.2 6.7-.2"/>
    </g>
  </g>
  <path d="M15.5 16.5 32 48l16.5-31.5" fill="none" stroke="#FFFFFF" stroke-width="7.4" stroke-linecap="round" stroke-linejoin="round"/>
  <circle cx="15.5" cy="16.5" r="4.3" fill="#67E8F9"/>
  <circle cx="48.5" cy="16.5" r="4.3" fill="#2DD4BF"/>
  <circle cx="32" cy="48" r="4.3" fill="#60A5FA"/>
</svg>
