<svg xmlns="http://www.w3.org/2000/svg" width="1080" height="608" viewBox="0 0 1080 608">
  <defs>
    <linearGradient id="bg" x1="0" y1="0" x2="1080" y2="608" gradientUnits="userSpaceOnUse">
      <stop stop-color="#10213F"/>
      <stop offset="1" stop-color="#173D73"/>
    </linearGradient>
    <pattern id="grid" width="32" height="32" patternUnits="userSpaceOnUse">
      <path d="M32 0H0V32" fill="none" stroke="#FFFFFF" stroke-opacity=".035"/>
    </pattern>
    <clipPath id="screen"><rect x="735" y="54" width="278" height="500" rx="28"/></clipPath>
    <filter id="shadow" x="-30%" y="-30%" width="160%" height="160%">
      <feDropShadow dx="0" dy="18" stdDeviation="18" flood-color="#020617" flood-opacity=".35"/>
    </filter>
  </defs>
  <rect width="1080" height="608" rx="28" fill="url(#bg)"/>
  <rect width="1080" height="608" rx="28" fill="url(#grid)"/>
  <circle cx="984" cy="66" r="230" fill="#0891B2" opacity=".18"/>
  <circle cx="82" cy="590" r="210" fill="#2563EB" opacity=".17"/>

  <image href="../../vizancia-mark.svg" x="64" y="58" width="78" height="78"/>
  <text x="164" y="111" fill="#FFFFFF" font-family="Arial, sans-serif" font-size="37" font-weight="700">Vizancia</text>
  <text x="64" y="235" fill="#FFFFFF" font-family="Arial, sans-serif" font-size="52" font-weight="700">Learn how AI works.</text>
  <text x="64" y="300" fill="#67E8F9" font-family="Arial, sans-serif" font-size="52" font-weight="700">Know when to question it.</text>
  <text x="64" y="370" fill="#CBD5E1" font-family="Arial, sans-serif" font-size="24">Practical AI literacy through short lessons,</text>
  <text x="64" y="405" fill="#CBD5E1" font-family="Arial, sans-serif" font-size="24">active games, and thoughtful practice.</text>
  <g transform="translate(64 476)">
    <rect width="177" height="47" rx="23.5" fill="#FFFFFF" fill-opacity=".1" stroke="#FFFFFF" stroke-opacity=".16"/>
    <circle cx="25" cy="23.5" r="6" fill="#67E8F9"/>
    <text x="42" y="31" fill="#FFFFFF" font-family="Arial, sans-serif" font-size="19" font-weight="700">Ages 8 and up</text>
  </g>

  <g filter="url(#shadow)">
    <rect x="719" y="38" width="310" height="532" rx="38" fill="#FFFFFF" fill-opacity=".12" stroke="#FFFFFF" stroke-opacity=".22" stroke-width="2"/>
    <image href="../../screenshots/campus/campus-ipad.jpg" x="735" y="54" width="278" height="500" preserveAspectRatio="xMidYMid slice" clip-path="url(#screen)"/>
  </g>
</svg>
